<svg version="1.1" xmlns="http://www.w3.org/2000/svg" xmlns:xlink="http://www.w3.org/1999/xlink" width="256.000000pt" height="256.000000pt" viewBox="0,0,256,256"><g fill="#ffffff" fill-rule="nonzero" stroke="none" stroke-width="1" stroke-linecap="butt" stroke-linejoin="miter" stroke-miterlimit="10" stroke-dasharray="" stroke-dashoffset="0" font-family="none" font-weight="none" font-size="none" text-anchor="none" style="mix-blend-mode: normal"><g transform="translate(-0.18543,-2.79822)"><g transform="translate(0,256) scale(0.1,-0.1)"><path d="M1305,2174c-636,-123 -881,-167 -971,-173c-139,-9 -176,-25 -222,-94l-27,-41v-786v-786l27,-41c15,-22 44,-51 65,-64l38,-24h1066h1065l41,27c22,15 51,44 64,65l24,38l3,679c2,500 0,682 -9,692c-10,12 -130,14 -723,15l-711,1l375,74c206,41 528,105 714,142c264,52 342,71 350,85c9,14 -3,45 -64,165c-88,173 -109,192 -199,191c-31,0 -438,-75 -906,-165zM2255,2254c9,-4 41,-55 71,-115l54,-109l-28,-6c-15,-3 -34,-8 -43,-10c-12,-3 -34,26 -83,112c-36,64 -66,121 -66,125c0,10 70,12 95,3zM1883,2065c37,-65 66,-119 65,-120c-6,-4 -130,-26 -132,-23c-14,19 -137,241 -134,242c6,5 113,23 123,21c6,-1 40,-55 78,-120zM1404,1984c36,-64 66,-120 66,-124c0,-8 -86,-30 -114,-30c-12,0 -146,221 -146,240c0,4 26,11 58,17c31,6 60,11 63,12c4,0 36,-51 73,-115zM935,1884c37,-64 64,-118 61,-121c-8,-8 -180,-42 -186,-36c-13,13 -138,238 -134,242c6,7 178,38 186,34c3,-2 36,-55 73,-119zM798,1480l-30,-120h-64h-64v120v120h94h94zM1318,1480l-30,-120h-98h-98l30,120l30,120h98h98zM1838,1480l-30,-120h-98h-98l30,120l30,120h98h98zM2400,1480v-120h-134h-134l30,120l30,120h104h104zM2398,795l-3,-485l-33,-32l-32,-33h-1050h-1050l-32,33l-33,32l-3,485l-3,485h1121h1121z"></path><path d="M240,1160v-40h360h360v40v40h-360h-360z"></path><path d="M240,1000v-40h240h240v-120v-120h-240h-240v-40v-40h1040h1040v40v40h-240h-240v120v120h240h240v40v40h-1040h-1040zM1760,840v-120h-480h-480v120v120h480h480z"></path><path d="M880,840v-40h40h40v40v40h-40h-40z"></path><path d="M1040,840v-40h40h40v40v40h-40h-40z"></path><path d="M240,840v-40h200h200v40v40h-200h-200z"></path><path d="M1920,840v-40h40h40v40v40h-40h-40z"></path><path d="M240,452c0,-71 4,-112 12,-120c8,-8 49,-12 120,-12h108v40v40h-80h-80v80v80h-40h-40z"></path><path d="M2240,480v-80h-80h-80v-40v-40h108c71,0 112,4 120,12c8,8 12,49 12,120v108h-40h-40z"></path></g></g></g></svg>